<!DOCTYPE svg PUBLIC "-//W3C//DTD SVG 1.1//EN" "http://www.w3.org/Graphics/SVG/1.1/DTD/svg11.dtd">
<!-- Uploaded to: SVG Repo, www.svgrepo.com, Transformed by: SVG Repo Mixer Tools -->
<svg height="800px" width="800px" version="1.1" id="Layer_1" xmlns="http://www.w3.org/2000/svg" xmlns:xlink="http://www.w3.org/1999/xlink" viewBox="0 0 512 512" xml:space="preserve" fill="#000000">
<g id="SVGRepo_bgCarrier" stroke-width="0"/>
<g id="SVGRepo_tracerCarrier" stroke-linecap="round" stroke-linejoin="round"/>
<g id="SVGRepo_iconCarrier"> <circle style="fill:#2D2D2D;" cx="256" cy="256" r="256"/> <path style="fill:#FFFFFF;" d="M256,489.296C127.36,489.296,22.704,384.64,22.704,256C22.704,127.352,127.36,22.696,256,22.696 c128.648,0,233.304,104.656,233.304,233.304C489.304,384.64,384.648,489.296,256,489.296z M256,30.696 C131.768,30.696,30.704,131.768,30.704,256c0,124.224,101.072,225.296,225.296,225.296c124.232,0,225.304-101.072,225.304-225.296 C481.304,131.768,380.232,30.696,256,30.696z"/> <path style="fill:#DB2B42;" d="M156.64,387.712V124.288l246.72,131.72L156.64,387.712z"/> </g>
</svg>